<?xml version="1.0" standalone="no"?>
<!DOCTYPE svg PUBLIC "-//W3C//DTD SVG 20010904//EN"
 "http://www.w3.org/TR/2001/REC-SVG-20010904/DTD/svg10.dtd">
<svg version="1.0" xmlns="http://www.w3.org/2000/svg"
 width="1280.000000pt" height="853.000000pt" viewBox="0 0 1280.000000 853.000000"
 preserveAspectRatio="xMidYMid meet">
<metadata>
Created by potrace 1.15, written by Peter Selinger 2001-2017
</metadata>
<g transform="translate(0.000000,853.000000) scale(0.100000,-0.100000)"
fill="#000000" stroke="none">
<path d="M6200 5394 c-202 -54 -333 -242 -347 -494 -5 -101 6 -172 43 -275 4
-11 4 -17 -1 -13 -4 4 -21 49 -36 100 -19 61 -27 78 -23 49 8 -58 38 -144 64
-187 44 -70 166 -177 315 -275 357 -235 443 -314 521 -476 l30 -65 13 43 c15
49 50 96 167 221 91 98 133 131 360 281 195 129 277 209 332 324 35 74 37 84
40 194 6 186 -36 314 -144 441 -82 96 -175 138 -312 141 -126 3 -215 -32 -319
-122 -44 -38 -92 -90 -110 -120 l-32 -53 -35 53 c-123 192 -334 285 -526 233z
m105 -1132 c-4 -5 -75 37 -75 44 0 3 18 -6 39 -18 22 -12 38 -24 36 -26z"/>
<path d="M810 5354 c0 -5 16 -24 35 -44 l35 -36 -69 -1 c-38 -1 -79 -6 -91
-13 -12 -7 -77 -20 -144 -30 -83 -12 -152 -30 -220 -56 l-99 -38 169 -163 c93
-90 197 -187 232 -216 69 -56 102 -101 102 -139 0 -38 -47 -94 -122 -146 -37
-26 -135 -99 -217 -162 -147 -112 -151 -116 -148 -150 2 -35 2 -35 106 -73
111 -41 165 -47 621 -77 383 -24 736 -53 745 -59 10 -8 241 -5 305 3 58 7 180
72 233 123 26 27 69 84 95 128 91 154 261 287 346 271 20 -4 26 -3 17 3 -11 7
-10 10 5 15 48 14 205 25 316 20 68 -3 301 -7 518 -9 1108 -11 1269 -13 1315
-20 36 -5 46 -4 35 4 -11 8 89 10 340 8 l355 -2 0 85 0 85 -210 2 c-115 0
-543 4 -950 8 -670 6 -750 5 -850 -11 -97 -15 -160 -16 -519 -10 -418 7 -412
6 -476 45 -8 5 -24 13 -35 16 -11 4 -15 9 -8 12 14 5 -75 130 -100 138 -9 4
-26 24 -37 45 -23 45 -25 54 -8 44 7 -4 8 -3 4 5 -4 6 -11 9 -15 6 -10 -5 -69
122 -78 166 -3 16 -27 49 -57 77 -45 42 -61 51 -125 65 -48 11 -121 17 -210
18 -75 0 -181 6 -236 13 -97 13 -98 14 -40 16 46 1 54 4 35 10 -36 12 -98 12
-105 0 -3 -5 -33 -10 -66 -10 -38 0 -58 4 -54 10 8 13 2 13 -177 -6 -114 -12
-157 -13 -176 -4 -30 13 -31 12 -39 -35 -5 -30 -3 -37 8 -33 8 3 28 -1 44 -9
27 -13 28 -13 11 2 -12 9 -15 15 -7 15 19 0 132 -70 127 -79 -3 -4 40 -53 94
-110 55 -57 125 -137 157 -178 32 -41 86 -109 120 -151 58 -70 62 -77 47 -93
-18 -20 -6 -30 -226 211 -104 114 -307 306 -319 303 -14 -4 -90 95 -77 100 18
6 -5 43 -24 38 -96 -27 -89 -29 -205 41 -18 11 -33 16 -33 12z m745 -111 c19
-9 35 -20 35 -23 0 -4 17 -15 38 -25 38 -18 126 -115 175 -194 16 -25 42 -59
58 -76 40 -40 109 -137 147 -207 23 -42 28 -59 19 -66 -25 -20 -42 -18 -67 9
-43 46 -115 142 -113 150 2 5 -6 13 -16 18 -10 6 -24 24 -31 41 -7 18 -18 29
-26 26 -7 -3 -15 2 -18 10 -4 10 -2 13 7 8 7 -4 9 -3 4 2 -5 5 -10 7 -12 4 -7
-11 -43 33 -38 46 3 8 0 14 -6 14 -6 0 -18 14 -26 30 -9 17 -20 28 -24 25 -5
-2 -43 38 -86 90 -58 72 -75 99 -70 115 8 24 6 24 50 3z m250 -39 c52 -35 135
-107 135 -117 0 -5 9 -21 20 -37 11 -15 17 -30 14 -33 -3 -3 4 -8 15 -12 11
-3 28 -22 37 -41 9 -20 28 -42 40 -51 13 -8 24 -24 24 -34 0 -10 5 -21 10 -24
6 -4 8 -10 5 -14 -2 -5 2 -17 11 -27 14 -18 14 -18 4 5 -7 13 -8 21 -2 17 14
-9 72 -113 72 -130 0 -7 7 -19 15 -26 14 -12 14 -15 -1 -31 -16 -18 -18 -17
-58 10 -68 48 -220 225 -337 396 -96 140 -91 128 -73 153 19 28 23 27 69 -4z
m-983 -23 c24 -10 52 -28 62 -40 11 -11 26 -21 35 -21 32 -1 72 -49 75 -90 1
-10 10 -14 29 -12 23 3 28 -1 33 -27 4 -17 13 -31 20 -31 7 0 21 -11 29 -24 9
-13 25 -26 35 -29 11 -3 20 -12 20 -21 0 -9 6 -16 13 -16 19 0 44 -30 52 -63
6 -20 20 -34 52 -49 29 -14 42 -25 39 -35 -3 -8 -2 -11 4 -8 5 3 18 -2 29 -12
15 -13 17 -19 8 -25 -9 -6 -9 -8 1 -8 9 0 6 -10 -9 -31 -18 -26 -24 -29 -33
-18 -6 8 -18 15 -26 17 -30 7 -160 114 -241 201 -161 169 -186 197 -204 228
-10 18 -24 29 -32 26 -7 -3 -13 2 -13 10 0 9 -12 22 -27 29 -19 9 -29 22 -31
41 -4 33 16 36 80 8z m231 -30 c21 -12 35 -16 31 -10 -4 6 9 1 28 -12 38 -26
161 -155 222 -234 55 -70 58 -73 51 -50 -6 16 -3 16 14 -5 11 -14 21 -31 21
-38 0 -7 8 -16 18 -19 18 -8 51 -43 52 -56 0 -5 11 -23 25 -41 22 -29 24 -34
9 -40 -9 -3 -34 -1 -56 4 -29 8 -45 21 -61 48 -12 20 -21 40 -20 43 1 3 -19
26 -44 50 -25 24 -42 37 -38 29 19 -35 -44 33 -144 155 -131 159 -180 224
-161 209 8 -7 32 -21 53 -33z m-430 -24 c-6 -10 -53 32 -53 46 0 4 13 -2 29
-15 15 -13 26 -27 24 -31z m1442 -15 c24 -31 42 -59 39 -63 -2 -4 11 -20 30
-37 19 -16 42 -43 52 -58 10 -16 12 -23 4 -16 -17 15 -34 16 -25 1 4 -5 18
-14 32 -20 13 -5 21 -14 18 -20 -4 -5 16 -34 44 -64 28 -30 51 -57 52 -62 0
-4 2 -17 3 -29 1 -12 12 -32 25 -45 25 -27 24 -54 -3 -54 -12 0 -34 26 -65 76
-53 88 -111 160 -121 154 -4 -2 -19 17 -33 44 -15 27 -34 54 -42 61 -8 7 -15
19 -15 27 0 7 -7 16 -16 20 -8 3 -13 11 -10 18 2 7 -10 30 -27 52 -61 73 -60
69 -21 70 31 1 40 -5 79 -55z m-890 28 c10 -11 16 -20 13 -20 -3 0 -13 9 -23
20 -10 11 -16 20 -13 20 3 0 13 -9 23 -20z m-502 -42 c17 -12 41 -21 53 -20
27 2 75 -53 66 -76 -4 -11 0 -14 16 -10 23 6 58 -24 48 -40 -3 -5 4 -12 15
-15 11 -3 23 -15 26 -26 3 -12 14 -21 25 -21 11 0 22 -9 25 -20 3 -11 11 -20
18 -20 7 0 23 -20 35 -44 23 -49 41 -68 61 -64 7 2 17 -6 23 -18 6 -11 16 -19
22 -17 6 2 17 -3 24 -12 7 -8 9 -15 5 -15 -4 0 -2 -7 5 -14 7 -10 8 -21 2 -31
-8 -15 -11 -15 -23 -3 -8 8 -19 13 -26 11 -33 -11 -110 54 -264 228 -123 138
-135 152 -154 188 -8 17 -20 30 -26 28 -6 -1 -13 6 -14 16 -4 22 0 22 38 -5z
m1312 -36 c-6 -7 -35 18 -35 31 0 5 9 2 20 -8 11 -10 18 -20 15 -23z m2728
-399 c-7 -2 -21 -2 -30 0 -10 3 -4 5 12 5 17 0 24 -2 18 -5z m-3229 -128 c-5
-11 -2 -13 10 -9 22 8 34 -25 14 -40 -8 -6 -16 -15 -18 -21 -3 -15 -206 -320
-225 -338 -8 -9 -15 -18 -15 -21 0 -16 -37 -46 -58 -46 -13 0 -21 -4 -18 -8 2
-4 -20 -9 -50 -10 -30 -1 -54 2 -54 6 0 17 13 21 33 11 14 -8 17 -8 13 0 -4 5
11 28 33 51 25 26 37 47 34 59 -5 19 36 71 56 71 7 0 9 9 5 26 -5 20 -2 26 15
31 12 3 21 13 21 24 0 10 4 21 10 24 6 3 7 -1 4 -9 -3 -9 -2 -16 4 -16 5 0 9
14 8 31 -1 18 3 33 11 36 7 3 13 10 13 16 0 18 32 47 51 47 10 0 23 9 29 20 6
11 8 20 5 20 -3 0 0 6 7 14 7 7 19 11 27 8 9 -3 12 -1 7 6 -3 6 2 15 11 21 23
14 23 14 17 -4z m-604 -10 c8 0 16 -8 18 -17 2 -11 -3 -18 -12 -18 -9 0 -15
-4 -13 -9 2 -9 -20 -30 -210 -191 -48 -41 -89 -78 -91 -82 -2 -4 -9 -8 -15 -8
-7 0 -23 -12 -36 -25 -13 -14 -34 -28 -47 -31 -13 -3 -21 -10 -18 -15 3 -5 1
-9 -5 -9 -5 0 -13 5 -16 10 -4 6 -10 8 -16 5 -5 -3 -24 -3 -44 1 -51 9 -46 36
13 65 28 15 52 35 60 52 13 27 50 49 75 44 7 -1 11 7 10 20 -2 16 4 23 26 28
16 3 32 13 35 21 3 8 12 14 21 14 8 0 15 7 15 15 0 9 8 19 18 22 9 4 23 15 30
25 8 11 26 18 47 18 26 0 39 6 51 25 12 18 22 24 35 20 14 -5 17 -2 13 8 -5
15 25 29 36 17 3 -3 12 -5 20 -5z m1535 -6 c-4 -5 1 -9 9 -9 9 0 16 -3 16 -6
0 -6 -62 -97 -140 -206 -19 -27 -37 -48 -42 -48 -4 0 -8 -7 -8 -15 0 -8 -11
-22 -24 -31 -15 -9 -22 -21 -19 -30 3 -9 -1 -14 -12 -14 -9 0 -14 -4 -11 -9 8
-12 -30 -58 -40 -49 -4 5 1 17 12 29 12 14 18 34 18 62 -2 40 13 67 35 67 6 0
11 5 11 10 0 6 -4 10 -10 10 -14 0 -12 16 3 32 8 7 12 19 9 26 -2 6 1 12 7 12
6 0 11 -5 11 -12 0 -6 2 -9 5 -6 3 3 2 16 -3 28 -11 29 13 80 39 87 17 5 21
10 18 29 -1 8 52 44 64 44 5 0 5 -4 2 -10 -3 -5 -1 -10 4 -10 6 0 11 6 11 14
0 15 20 26 33 19 4 -2 5 -9 2 -14z m-544 -5 c16 -15 14 -22 -48 -127 -36 -62
-71 -119 -79 -128 -8 -9 -12 -18 -9 -21 3 -3 -8 -20 -25 -38 -16 -17 -28 -36
-25 -40 3 -5 -11 -18 -30 -30 -38 -23 -48 -38 -14 -19 24 12 22 8 -13 -43 -16
-23 -26 -27 -81 -30 -34 -2 -71 -8 -82 -12 -16 -7 -14 -3 7 18 15 14 33 26 40
26 9 0 9 3 0 12 -14 14 2 38 25 38 9 0 13 6 9 15 -3 8 1 21 9 29 8 8 15 24 15
35 0 12 5 21 10 21 6 0 10 9 10 19 0 11 14 31 32 44 17 14 32 36 34 49 1 12 3
26 3 31 1 4 9 7 19 8 9 0 12 3 5 6 -17 7 6 43 24 36 8 -3 13 2 13 13 0 18 27
54 41 54 4 0 20 11 35 25 31 29 50 31 75 9z m-827 -10 c-15 -13 -16 -15 -2
-10 15 4 16 2 6 -19 -6 -14 -15 -25 -20 -25 -4 0 -8 -7 -8 -15 0 -16 -68 -147
-103 -200 -32 -47 -89 -105 -122 -122 -21 -11 -63 -17 -135 -19 -111 -3 -144
1 -134 17 3 5 9 7 14 4 9 -6 74 27 103 53 9 8 17 23 17 33 0 16 47 50 75 54 6
1 14 3 19 3 5 1 3 9 -4 17 -11 13 -8 17 19 28 17 6 31 18 31 25 0 8 9 16 19
19 11 3 22 16 25 29 4 13 12 24 19 24 7 0 18 9 25 20 7 12 23 20 41 20 20 0
34 8 46 26 13 21 19 24 26 13 7 -11 9 -11 9 3 0 9 8 22 18 27 27 16 38 13 16
-5z m666 12 c0 -3 -4 -8 -10 -11 -5 -3 -10 -1 -10 4 0 6 5 11 10 11 6 0 10 -2
10 -4z m-33 -29 c18 7 -181 -290 -224 -334 -17 -17 -40 -36 -52 -42 -12 -7
-19 -16 -16 -22 4 -5 -1 -9 -9 -9 -9 0 -16 -6 -16 -14 0 -7 -11 -21 -25 -30
-22 -14 -25 -15 -25 -1 0 8 5 15 11 15 15 0 52 89 46 111 -3 12 4 30 19 46 13
14 24 23 24 19 0 -4 5 -4 11 0 8 4 8 9 0 17 -13 13 4 37 25 37 8 0 14 9 14 20
0 11 4 20 9 20 5 0 11 9 13 20 2 12 7 20 12 20 5 -1 14 9 20 22 6 13 23 25 36
26 31 5 52 21 47 36 -7 19 18 36 33 23 10 -9 12 -8 7 5 -6 16 15 33 21 17 2
-4 10 -5 19 -2z m501 -24 c1 -58 -34 -188 -69 -257 -32 -64 -112 -151 -129
-141 -6 3 -10 -2 -10 -11 0 -10 -3 -14 -7 -11 -3 4 -13 1 -22 -6 -22 -19 -51
-28 -51 -17 0 5 9 12 20 15 30 9 71 74 64 101 -4 17 2 28 25 45 24 17 28 25
19 36 -8 10 -7 18 6 31 9 10 16 24 16 31 0 7 4 10 9 7 5 -4 8 6 6 20 -3 35 22
83 51 96 14 7 24 20 24 32 0 23 26 66 40 66 4 0 8 -17 8 -37z"/>
<path d="M1580 5146 c0 -2 8 -10 18 -17 15 -13 16 -12 3 4 -13 16 -21 21 -21
13z"/>
<path d="M1626 5085 c4 -8 11 -15 16 -15 6 0 5 6 -2 15 -7 8 -14 15 -16 15 -2
0 -1 -7 2 -15z"/>
<path d="M755 5160 c3 -5 8 -10 11 -10 2 0 4 5 4 10 0 6 -5 10 -11 10 -5 0 -7
-4 -4 -10z"/>
<path d="M1140 4866 c0 -3 9 -10 20 -16 11 -6 20 -8 20 -6 0 3 -9 10 -20 16
-11 6 -20 8 -20 6z"/>
<path d="M1105 5079 c14 -24 38 -49 47 -49 17 0 7 17 -23 39 -18 13 -28 17
-24 10z"/>
<path d="M1425 4750 c10 -11 20 -20 23 -20 3 0 -3 9 -13 20 -10 11 -20 20 -23
20 -3 0 3 -9 13 -20z"/>
<path d="M2130 4930 c20 -13 33 -13 25 0 -3 6 -14 10 -23 10 -15 0 -15 -2 -2
-10z"/>
<path d="M2270 4736 c0 -2 7 -6 15 -10 8 -3 15 -1 15 4 0 6 -7 10 -15 10 -8 0
-15 -2 -15 -4z"/>
<path d="M2320 4670 c0 -5 5 -10 11 -10 5 0 7 5 4 10 -3 6 -8 10 -11 10 -2 0
-4 -4 -4 -10z"/>
<path d="M930 4846 c0 -2 7 -9 15 -16 9 -7 15 -8 15 -2 0 5 -7 12 -15 16 -8 3
-15 4 -15 2z"/>
<path d="M679 4413 c-13 -16 -12 -17 4 -4 9 7 17 15 17 17 0 8 -8 3 -21 -13z"/>
<path d="M1526 4363 c-6 -14 -5 -15 5 -6 7 7 10 15 7 18 -3 3 -9 -2 -12 -12z"/>
<path d="M1230 5177 c0 -1 34 -36 77 -77 l76 -75 -69 78 c-58 65 -84 88 -84
74z"/>
<path d="M11140 5109 c0 -5 15 -41 34 -81 70 -149 124 -274 129 -294 3 -17 0
-20 -24 -16 -17 3 -40 -3 -55 -13 -24 -15 -45 -16 -208 -10 -227 10 -265 10
-401 2 -102 -7 -107 -6 -70 7 l40 14 -33 1 c-18 1 -43 -6 -56 -14 -18 -12 -30
-13 -50 -5 -19 7 -76 5 -196 -7 -136 -14 -180 -15 -227 -6 -40 9 -73 9 -108 2
-76 -15 -512 -6 -487 10 6 3 -82 5 -195 4 -113 -1 -209 -6 -212 -10 -7 -10
-319 -9 -372 2 -23 4 -39 3 -43 -4 -9 -14 -306 -15 -306 -1 0 10 -151 4 -180
-7 -25 -10 -28 -10 -100 -12 l-70 -1 0 -90 0 -90 93 0 c52 0 96 -2 99 -5 4 -4
1322 -11 2751 -14 235 0 427 -4 427 -8 0 -4 -16 -35 -35 -68 -19 -33 -48 -89
-65 -125 -17 -36 -44 -91 -60 -122 -35 -68 -27 -72 55 -33 29 13 74 29 100 35
26 6 59 17 74 24 14 7 31 11 38 9 6 -2 25 2 40 11 16 8 64 24 107 34 43 11 86
27 95 36 21 19 160 68 172 61 4 -3 25 2 46 10 21 9 47 18 58 21 63 12 75 17
69 25 -3 5 -3 9 -1 9 3 0 117 38 253 85 166 57 251 82 258 75 7 -7 5 -10 -4
-10 -7 0 -11 -2 -8 -5 3 -3 13 -2 22 1 14 5 15 9 4 15 -11 8 -11 10 0 18 10 6
-17 20 -85 46 -54 20 -134 54 -178 75 -44 21 -113 50 -152 65 -40 15 -76 31
-79 36 -3 6 -20 8 -37 5 -21 -4 -26 -3 -13 2 14 6 -58 38 -285 126 -167 65
-320 120 -339 122 -19 3 -42 7 -50 10 -8 3 -26 8 -39 10 -13 3 -50 16 -82 29
-33 13 -59 19 -59 14z m-2873 -435 c-3 -3 -12 -4 -19 -1 -8 3 -5 6 6 6 11 1
17 -2 13 -5z"/>
<path d="M1441 4948 c35 -42 65 -75 67 -73 5 5 -65 90 -103 125 -16 14 1 -10
36 -52z"/>
<path d="M11170 4975 c0 -5 5 -17 10 -25 5 -8 10 -10 10 -5 0 6 -5 17 -10 25
-5 8 -10 11 -10 5z"/>
<path d="M8895 4720 l-30 -8 32 -1 c17 0 35 4 38 9 7 11 3 11 -40 0z"/>
<path d="M8385 4710 c-18 -8 -17 -9 8 -9 15 -1 27 4 27 9 0 12 -8 12 -35 0z"/>
<path d="M9988 4713 c12 -2 30 -2 40 0 9 3 -1 5 -23 4 -22 0 -30 -2 -17 -4z"/>
<path d="M9788 4703 c12 -2 30 -2 40 0 9 3 -1 5 -23 4 -22 0 -30 -2 -17 -4z"/>
<path d="M10110 4700 c0 -5 5 -10 11 -10 5 0 7 5 4 10 -3 6 -8 10 -11 10 -2 0
-4 -4 -4 -10z"/>
<path d="M3228 4673 c7 -3 16 -2 19 1 4 3 -2 6 -13 5 -11 0 -14 -3 -6 -6z"/>
<path d="M7933 4620 c0 -30 2 -43 4 -27 2 15 2 39 0 55 -2 15 -4 2 -4 -28z"/>
<path d="M5085 4480 c-14 -6 -2 -9 40 -8 44 0 54 2 35 8 -33 10 -51 10 -75 0z"/>
<path d="M5313 4473 c15 -2 39 -2 55 0 15 2 2 4 -28 4 -30 0 -43 -2 -27 -4z"/>
<path d="M12260 4455 c-14 -8 -19 -14 -10 -14 8 0 26 6 40 14 14 8 19 14 10
14 -8 0 -26 -6 -40 -14z"/>
<path d="M12135 4415 c-16 -7 -23 -14 -15 -14 8 0 26 6 40 14 32 18 14 18 -25
0z"/>
</g>
</svg>
